<svg width="61" height="40" viewBox="0 0 61 40" fill="none" xmlns="http://www.w3.org/2000/svg">
<g filter="url(#filter0_d_2_232)">
<mask id="mask0_2_232" style="mask-type:alpha" maskUnits="userSpaceOnUse" x="4" y="0" width="32" height="32">
<path d="M34.2857 0H5.51429C4.67797 0 4 0.685862 4 1.53191V29.8723C4 30.7184 4.67797 31.4043 5.51429 31.4043H34.2857C35.122 31.4043 35.8 30.7184 35.8 29.8723V1.53191C35.8 0.685862 35.122 0 34.2857 0Z" fill="white"/>
</mask>
<g mask="url(#mask0_2_232)">
<path d="M34.2857 0H5.51429C4.67797 0 4 0.685862 4 1.53191V29.8723C4 30.7184 4.67797 31.4043 5.51429 31.4043H34.2857C35.122 31.4043 35.8 30.7184 35.8 29.8723V1.53191C35.8 0.685862 35.122 0 34.2857 0Z" stroke="#D1B06B" stroke-width="6"/>
</g>
<mask id="mask1_2_232" style="mask-type:alpha" maskUnits="userSpaceOnUse" x="33" y="7" width="24" height="25">
<path d="M33.5408 7.93956C33.5408 7.51651 33.8797 7.17358 34.2979 7.17358H47.5357C52.5536 7.17358 56.6214 11.2888 56.6214 16.3651V30.6218C56.6214 31.0448 56.2825 31.3877 55.8643 31.3877H34.2979C33.8797 31.3877 33.5408 31.0448 33.5408 30.6218V7.93956Z" fill="white"/>
</mask>
<g mask="url(#mask1_2_232)">
<path d="M33.5408 7.93956C33.5408 7.51651 33.8797 7.17358 34.2979 7.17358H47.5357C52.5536 7.17358 56.6214 11.2888 56.6214 16.3651V30.6218C56.6214 31.0448 56.2825 31.3877 55.8643 31.3877H34.2979C33.8797 31.3877 33.5408 31.0448 33.5408 30.6218V7.93956Z" stroke="#D1B06B" stroke-width="6"/>
</g>
<mask id="mask2_2_232" style="mask-type:alpha" maskUnits="userSpaceOnUse" x="42" y="7" width="15" height="13">
<path d="M42.944 7.17358H47.5357C52.5536 7.17358 56.6215 11.2888 56.6215 16.3651V18.5147C56.6215 18.9377 56.2825 19.2806 55.8643 19.2806H45.2154C43.961 19.2806 42.944 18.2519 42.944 16.9828V7.17358Z" fill="white"/>
</mask>
<g mask="url(#mask2_2_232)">
<path d="M42.944 7.17358H47.5357C52.5536 7.17358 56.6215 11.2888 56.6215 16.3651V18.5147C56.6215 18.9377 56.2825 19.2806 55.8643 19.2806H45.2154C43.961 19.2806 42.944 18.2519 42.944 16.9828V7.17358Z" stroke="#D1B06B" stroke-width="6"/>
</g>
</g>
<defs>
<filter id="filter0_d_2_232" x="0" y="0" width="61" height="44" filterUnits="userSpaceOnUse" color-interpolation-filters="sRGB">
<feFlood flood-opacity="0" result="BackgroundImageFix"/>
<feColorMatrix in="SourceAlpha" type="matrix" values="0 0 0 0 0 0 0 0 0 0 0 0 0 0 0 0 0 0 127 0" result="hardAlpha"/>
<feOffset dy="4"/>
<feGaussianBlur stdDeviation="2"/>
<feComposite in2="hardAlpha" operator="out"/>
<feColorMatrix type="matrix" values="0 0 0 0 0 0 0 0 0 0 0 0 0 0 0 0 0 0 0.25 0"/>
<feBlend mode="normal" in2="BackgroundImageFix" result="effect1_dropShadow_2_232"/>
<feBlend mode="normal" in="SourceGraphic" in2="effect1_dropShadow_2_232" result="shape"/>
</filter>
</defs>
</svg>
