<svg width="399" height="78" viewBox="0 0 399 78" fill="none" xmlns="http://www.w3.org/2000/svg">
<path d="M116.215 58.22C116.432 58.22 116.54 58.35 116.54 58.61C116.54 58.87 116.432 59 116.215 59C115.392 59 114.07 58.9567 112.25 58.87C110.43 58.7833 109.108 58.74 108.285 58.74C107.202 58.74 105.923 58.7833 104.45 58.87C102.977 58.9567 101.828 59 101.005 59C100.832 59 100.745 58.87 100.745 58.61C100.745 58.35 100.832 58.22 101.005 58.22C102.262 58.22 103.172 58.09 103.735 57.83C104.342 57.5267 104.645 57.05 104.645 56.4C104.645 55.75 104.277 54.645 103.54 53.085L98.6 43.075H82.87L79.75 50.095C79.1867 51.395 78.905 52.565 78.905 53.605C78.905 55.1217 79.4467 56.27 80.53 57.05C81.6133 57.83 83.13 58.22 85.08 58.22C85.2967 58.22 85.405 58.35 85.405 58.61C85.405 58.87 85.2967 59 85.08 59C84.3 59 83.1733 58.9567 81.7 58.87C80.0533 58.7833 78.6233 58.74 77.41 58.74C76.24 58.74 74.875 58.7833 73.315 58.87C71.9283 58.9567 70.78 59 69.87 59C69.6533 59 69.545 58.87 69.545 58.61C69.545 58.35 69.6533 58.22 69.87 58.22C71.0833 58.22 72.1017 57.9817 72.925 57.505C73.7483 57.0283 74.55 56.1833 75.33 54.97C76.11 53.7133 77.0417 51.8717 78.125 49.445L92.1 17.985C92.1867 17.855 92.3817 17.79 92.685 17.79C92.9883 17.79 93.1617 17.855 93.205 17.985L109.13 50.095C110.647 53.215 111.903 55.36 112.9 56.53C113.94 57.6567 115.045 58.22 116.215 58.22ZM83.585 41.45H97.82L90.345 26.305L83.585 41.45ZM137.011 54.84C137.141 54.84 137.249 54.9267 137.336 55.1C137.466 55.2733 137.466 55.4033 137.336 55.49C135.733 57.0067 134.216 58.1117 132.786 58.805C131.356 59.455 129.839 59.78 128.236 59.78C126.373 59.78 124.791 59.3467 123.491 58.48C122.234 57.57 121.606 56.075 121.606 53.995V39.305C121.606 37.875 121.368 36.9217 120.891 36.445C120.458 35.9683 119.591 35.73 118.291 35.73C118.248 35.73 118.183 35.6867 118.096 35.6C118.053 35.47 118.031 35.34 118.031 35.21C118.031 35.08 118.053 34.9717 118.096 34.885C118.183 34.755 118.248 34.69 118.291 34.69C122.364 34.5167 124.921 32.7617 125.961 29.425C126.048 29.2517 126.221 29.165 126.481 29.165C126.784 29.165 126.936 29.2517 126.936 29.425V34.56C128.973 34.5167 131.854 34.3 135.581 33.91C135.668 33.91 135.754 34.0833 135.841 34.43C135.971 34.7333 136.036 35.08 136.036 35.47C136.036 35.86 135.949 36.25 135.776 36.64C135.646 37.03 135.494 37.2033 135.321 37.16C132.894 36.5967 130.099 36.25 126.936 36.12V51.85C126.936 53.54 127.348 54.7967 128.171 55.62C129.038 56.4 130.229 56.79 131.746 56.79C133.566 56.79 135.278 56.1617 136.881 54.905L137.011 54.84ZM158.91 54.84C159.04 54.84 159.149 54.9267 159.235 55.1C159.365 55.2733 159.365 55.4033 159.235 55.49C157.632 57.0067 156.115 58.1117 154.685 58.805C153.255 59.455 151.739 59.78 150.135 59.78C148.272 59.78 146.69 59.3467 145.39 58.48C144.134 57.57 143.505 56.075 143.505 53.995V39.305C143.505 37.875 143.267 36.9217 142.79 36.445C142.357 35.9683 141.49 35.73 140.19 35.73C140.147 35.73 140.082 35.6867 139.995 35.6C139.952 35.47 139.93 35.34 139.93 35.21C139.93 35.08 139.952 34.9717 139.995 34.885C140.082 34.755 140.147 34.69 140.19 34.69C144.264 34.5167 146.82 32.7617 147.86 29.425C147.947 29.2517 148.12 29.165 148.38 29.165C148.684 29.165 148.835 29.2517 148.835 29.425V34.56C150.872 34.5167 153.754 34.3 157.48 33.91C157.567 33.91 157.654 34.0833 157.74 34.43C157.87 34.7333 157.935 35.08 157.935 35.47C157.935 35.86 157.849 36.25 157.675 36.64C157.545 37.03 157.394 37.2033 157.22 37.16C154.794 36.5967 151.999 36.25 148.835 36.12V51.85C148.835 53.54 149.247 54.7967 150.07 55.62C150.937 56.4 152.129 56.79 153.645 56.79C155.465 56.79 157.177 56.1617 158.78 54.905L158.91 54.84ZM175.285 59.845C172.685 59.845 170.388 59.2383 168.395 58.025C166.401 56.7683 164.863 55.1 163.78 53.02C162.696 50.8967 162.155 48.6 162.155 46.13C162.155 43.3133 162.848 40.93 164.235 38.98C165.665 36.9867 167.463 35.5133 169.63 34.56C171.84 33.5633 174.093 33.065 176.39 33.065C179.033 33.065 181.33 33.6933 183.28 34.95C185.273 36.2067 186.79 37.875 187.83 39.955C188.87 41.9917 189.39 44.18 189.39 46.52C189.39 49.12 188.74 51.4383 187.44 53.475C186.183 55.5117 184.471 57.0933 182.305 58.22C180.138 59.3033 177.798 59.845 175.285 59.845ZM177.235 58.545C179.141 58.545 180.593 57.7 181.59 56.01C182.63 54.32 183.15 51.85 183.15 48.6C183.15 45.6967 182.738 43.1617 181.915 40.995C181.135 38.8283 180.051 37.1817 178.665 36.055C177.321 34.9283 175.848 34.365 174.245 34.365C172.295 34.365 170.821 35.1667 169.825 36.77C168.828 38.3733 168.33 40.735 168.33 43.855C168.33 46.6717 168.698 49.2067 169.435 51.46C170.215 53.67 171.276 55.4033 172.62 56.66C174.006 57.9167 175.545 58.545 177.235 58.545ZM210.536 33.26C211.533 33.26 212.486 33.585 213.396 34.235C214.306 34.885 214.761 35.665 214.761 36.575C214.761 37.3983 214.501 38.07 213.981 38.59C213.504 39.11 212.833 39.37 211.966 39.37C211.403 39.37 210.926 39.2617 210.536 39.045C210.189 38.785 209.821 38.4383 209.431 38.005C209.041 37.615 208.694 37.3333 208.391 37.16C208.088 36.9433 207.719 36.835 207.286 36.835C206.809 36.835 206.289 37.03 205.726 37.42C205.206 37.7667 204.383 38.525 203.256 39.695V53.735C203.256 54.9483 203.429 55.88 203.776 56.53C204.123 57.1367 204.708 57.57 205.531 57.83C206.354 58.09 207.568 58.22 209.171 58.22C209.344 58.22 209.431 58.35 209.431 58.61C209.431 58.87 209.344 59 209.171 59C207.741 59 206.593 58.9783 205.726 58.935L200.591 58.87L196.821 58.935C196.214 58.9783 195.369 59 194.286 59C194.156 59 194.091 58.87 194.091 58.61C194.091 58.35 194.156 58.22 194.286 58.22C195.759 58.22 196.734 57.9167 197.211 57.31C197.688 56.7033 197.926 55.5117 197.926 53.735V41.32C197.926 39.9333 197.753 38.915 197.406 38.265C197.103 37.615 196.583 37.29 195.846 37.29C195.196 37.29 194.113 37.615 192.596 38.265H192.531C192.358 38.265 192.228 38.1567 192.141 37.94C192.054 37.7233 192.076 37.5933 192.206 37.55L200.721 33.39C200.981 33.3033 201.133 33.26 201.176 33.26C201.609 33.26 202.043 33.7367 202.476 34.69C202.909 35.6 203.169 36.8133 203.256 38.33C204.946 36.4233 206.354 35.1017 207.481 34.365C208.608 33.6283 209.626 33.26 210.536 33.26ZM248.693 58.22C248.823 58.22 248.888 58.35 248.888 58.61C248.888 58.87 248.823 59 248.693 59C247.609 59 246.764 58.9783 246.158 58.935L242.388 58.87L238.683 58.935C238.033 58.9783 237.166 59 236.083 59C235.953 59 235.888 58.87 235.888 58.61C235.888 58.35 235.953 58.22 236.083 58.22C237.556 58.22 238.531 57.9167 239.008 57.31C239.484 56.7033 239.723 55.5117 239.723 53.735V43.985C239.723 41.5583 239.268 39.7817 238.358 38.655C237.491 37.485 236.104 36.9 234.198 36.9C233.071 36.9 231.923 37.16 230.753 37.68C229.583 38.2 228.521 38.8933 227.568 39.76V53.735C227.568 55.5117 227.806 56.7033 228.283 57.31C228.759 57.9167 229.734 58.22 231.208 58.22C231.338 58.22 231.403 58.35 231.403 58.61C231.403 58.87 231.338 59 231.208 59C230.124 59 229.279 58.9783 228.673 58.935L224.903 58.87L221.133 58.935C220.526 58.9783 219.681 59 218.598 59C218.468 59 218.403 58.87 218.403 58.61C218.403 58.35 218.468 58.22 218.598 58.22C220.071 58.22 221.046 57.9167 221.523 57.31C221.999 56.7033 222.238 55.5117 222.238 53.735V41.32C222.238 39.9333 222.064 38.915 221.718 38.265C221.414 37.615 220.894 37.29 220.158 37.29C219.508 37.29 218.424 37.615 216.908 38.265H216.843C216.669 38.265 216.539 38.1567 216.453 37.94C216.366 37.7233 216.388 37.5933 216.518 37.55L225.033 33.39C225.293 33.3033 225.444 33.26 225.488 33.26C225.921 33.26 226.354 33.7583 226.788 34.755C227.264 35.7083 227.524 36.965 227.568 38.525C230.601 34.9283 233.894 33.13 237.448 33.13C239.831 33.13 241.694 33.8667 243.038 35.34C244.381 36.77 245.053 38.72 245.053 41.19V53.735C245.053 55.5117 245.291 56.7033 245.768 57.31C246.244 57.9167 247.219 58.22 248.693 58.22ZM274.591 54.905C274.678 54.905 274.764 54.9917 274.851 55.165C274.981 55.3383 275.003 55.4683 274.916 55.555C273.313 57.0283 271.709 58.1117 270.106 58.805C268.503 59.455 266.769 59.78 264.906 59.78C262.263 59.78 259.966 59.195 258.016 58.025C256.109 56.855 254.636 55.3167 253.596 53.41C252.599 51.5033 252.101 49.445 252.101 47.235C252.101 44.6783 252.729 42.3383 253.986 40.215C255.243 38.0917 256.954 36.4233 259.121 35.21C261.331 33.9533 263.779 33.325 266.466 33.325C269.066 33.325 271.081 33.9533 272.511 35.21C273.941 36.4667 274.656 38.33 274.656 40.8C274.656 42.0567 274.396 42.685 273.876 42.685L258.016 42.75C257.973 43.14 257.951 43.725 257.951 44.505C257.951 48.3183 258.818 51.3517 260.551 53.605C262.328 55.815 264.841 56.92 268.091 56.92C269.304 56.92 270.323 56.79 271.146 56.53C271.969 56.2267 273.074 55.7067 274.461 54.97L274.591 54.905ZM264.126 34.625C262.523 34.625 261.201 35.2533 260.161 36.51C259.164 37.7233 258.493 39.4133 258.146 41.58L268.546 41.385C268.459 36.8783 266.986 34.625 264.126 34.625ZM305.404 33.91C305.49 33.91 305.534 34.04 305.534 34.3C305.534 34.56 305.49 34.69 305.404 34.69C304.104 34.69 302.977 35.21 302.024 36.25C301.114 37.29 300.269 38.8717 299.489 40.995L292.014 60.82C290.454 64.98 288.959 68.2517 287.529 70.635C286.099 73.0183 284.647 74.7083 283.174 75.705C281.7 76.745 280.075 77.265 278.299 77.265C277.085 77.265 276.154 77.005 275.504 76.485C274.81 76.0083 274.464 75.2717 274.464 74.275C274.464 73.4083 274.745 72.7367 275.309 72.26C275.829 71.8267 276.479 71.61 277.259 71.61C277.779 71.61 278.212 71.675 278.559 71.805C278.949 71.9783 279.339 72.195 279.729 72.455C280.162 72.715 280.53 72.91 280.834 73.04C281.18 73.17 281.592 73.235 282.069 73.235C283.065 73.235 283.975 72.8233 284.799 72C285.665 71.22 286.554 69.8983 287.464 68.035C288.417 66.1717 289.544 63.5283 290.844 60.105L280.574 39.305C279.62 37.4417 278.862 36.2067 278.299 35.6C277.779 34.9933 277.129 34.69 276.349 34.69C276.219 34.69 276.154 34.56 276.154 34.3C276.154 34.04 276.219 33.91 276.349 33.91C277.475 33.91 278.342 33.9317 278.949 33.975L281.484 34.04L285.904 33.975C286.554 33.9317 287.442 33.91 288.569 33.91C288.699 33.91 288.764 34.04 288.764 34.3C288.764 34.56 288.699 34.69 288.569 34.69C287.399 34.69 286.532 34.7983 285.969 35.015C285.449 35.1883 285.189 35.535 285.189 36.055C285.189 36.445 285.297 36.835 285.514 37.225L293.444 53.605L297.799 40.995C298.189 39.8683 298.384 38.915 298.384 38.135C298.384 35.8383 296.932 34.69 294.029 34.69C293.942 34.69 293.899 34.56 293.899 34.3C293.899 34.04 293.942 33.91 294.029 33.91C295.199 33.91 296.087 33.9317 296.694 33.975L300.594 34.04L303.129 33.975C303.605 33.9317 304.364 33.91 305.404 33.91ZM312.143 37.29C312.143 38.6333 312.598 39.76 313.508 40.67C314.462 41.58 315.827 42.5333 317.603 43.53C319.163 44.3967 320.355 45.1117 321.178 45.675C322.045 46.2383 322.782 46.9967 323.388 47.95C324.038 48.9033 324.363 50.0517 324.363 51.395C324.363 52.8683 323.995 54.2333 323.258 55.49C322.522 56.7467 321.417 57.765 319.943 58.545C318.513 59.325 316.802 59.715 314.808 59.715C312.425 59.715 310.237 59.1083 308.243 57.895C307.983 57.635 307.853 57.375 307.853 57.115L307.723 51.135C307.723 51.005 307.832 50.94 308.048 50.94C308.308 50.8967 308.46 50.9183 308.503 51.005C309.24 53.1717 310.345 54.9483 311.818 56.335C313.335 57.7217 314.938 58.415 316.628 58.415C317.712 58.415 318.557 58.1333 319.163 57.57C319.77 57.0067 320.073 56.1617 320.073 55.035C320.073 53.3883 319.597 52.0883 318.643 51.135C317.69 50.1383 316.303 49.1633 314.483 48.21C313.01 47.43 311.862 46.78 311.038 46.26C310.215 45.6967 309.5 44.96 308.893 44.05C308.33 43.0967 308.048 41.9267 308.048 40.54C308.048 38.07 308.937 36.2283 310.713 35.015C312.533 33.8017 314.722 33.195 317.278 33.195C318.968 33.195 320.702 33.52 322.478 34.17C322.868 34.3433 323.063 34.5817 323.063 34.885C323.063 35.8817 323.042 36.6617 322.998 37.225L322.933 40.345C322.933 40.475 322.803 40.54 322.543 40.54C322.283 40.54 322.153 40.475 322.153 40.345C322.153 39.4783 321.807 38.59 321.113 37.68C320.42 36.7267 319.532 35.9467 318.448 35.34C317.365 34.7333 316.26 34.43 315.133 34.43C313.14 34.43 312.143 35.3833 312.143 37.29ZM347.563 54.84C347.693 54.84 347.801 54.9267 347.888 55.1C348.018 55.2733 348.018 55.4033 347.888 55.49C346.284 57.0067 344.768 58.1117 343.338 58.805C341.908 59.455 340.391 59.78 338.788 59.78C336.924 59.78 335.343 59.3467 334.043 58.48C332.786 57.57 332.158 56.075 332.158 53.995V39.305C332.158 37.875 331.919 36.9217 331.443 36.445C331.009 35.9683 330.143 35.73 328.843 35.73C328.799 35.73 328.734 35.6867 328.648 35.6C328.604 35.47 328.583 35.34 328.583 35.21C328.583 35.08 328.604 34.9717 328.648 34.885C328.734 34.755 328.799 34.69 328.843 34.69C332.916 34.5167 335.473 32.7617 336.513 29.425C336.599 29.2517 336.773 29.165 337.033 29.165C337.336 29.165 337.488 29.2517 337.488 29.425V34.56C339.524 34.5167 342.406 34.3 346.133 33.91C346.219 33.91 346.306 34.0833 346.393 34.43C346.523 34.7333 346.588 35.08 346.588 35.47C346.588 35.86 346.501 36.25 346.328 36.64C346.198 37.03 346.046 37.2033 345.873 37.16C343.446 36.5967 340.651 36.25 337.488 36.12V51.85C337.488 53.54 337.899 54.7967 338.723 55.62C339.589 56.4 340.781 56.79 342.298 56.79C344.118 56.79 345.829 56.1617 347.433 54.905L347.563 54.84ZM373.297 54.905C373.384 54.905 373.47 54.9917 373.557 55.165C373.687 55.3383 373.709 55.4683 373.622 55.555C372.019 57.0283 370.415 58.1117 368.812 58.805C367.209 59.455 365.475 59.78 363.612 59.78C360.969 59.78 358.672 59.195 356.722 58.025C354.815 56.855 353.342 55.3167 352.302 53.41C351.305 51.5033 350.807 49.445 350.807 47.235C350.807 44.6783 351.435 42.3383 352.692 40.215C353.949 38.0917 355.66 36.4233 357.827 35.21C360.037 33.9533 362.485 33.325 365.172 33.325C367.772 33.325 369.787 33.9533 371.217 35.21C372.647 36.4667 373.362 38.33 373.362 40.8C373.362 42.0567 373.102 42.685 372.582 42.685L356.722 42.75C356.679 43.14 356.657 43.725 356.657 44.505C356.657 48.3183 357.524 51.3517 359.257 53.605C361.034 55.815 363.547 56.92 366.797 56.92C368.01 56.92 369.029 56.79 369.852 56.53C370.675 56.2267 371.78 55.7067 373.167 54.97L373.297 54.905ZM362.832 34.625C361.229 34.625 359.907 35.2533 358.867 36.51C357.87 37.7233 357.199 39.4133 356.852 41.58L367.252 41.385C367.165 36.8783 365.692 34.625 362.832 34.625ZM394.555 33.26C395.551 33.26 396.505 33.585 397.415 34.235C398.325 34.885 398.78 35.665 398.78 36.575C398.78 37.3983 398.52 38.07 398 38.59C397.523 39.11 396.851 39.37 395.985 39.37C395.421 39.37 394.945 39.2617 394.555 39.045C394.208 38.785 393.84 38.4383 393.45 38.005C393.06 37.615 392.713 37.3333 392.41 37.16C392.106 36.9433 391.738 36.835 391.305 36.835C390.828 36.835 390.308 37.03 389.745 37.42C389.225 37.7667 388.401 38.525 387.275 39.695V53.735C387.275 54.9483 387.448 55.88 387.795 56.53C388.141 57.1367 388.726 57.57 389.55 57.83C390.373 58.09 391.586 58.22 393.19 58.22C393.363 58.22 393.45 58.35 393.45 58.61C393.45 58.87 393.363 59 393.19 59C391.76 59 390.611 58.9783 389.745 58.935L384.61 58.87L380.84 58.935C380.233 58.9783 379.388 59 378.305 59C378.175 59 378.11 58.87 378.11 58.61C378.11 58.35 378.175 58.22 378.305 58.22C379.778 58.22 380.753 57.9167 381.23 57.31C381.706 56.7033 381.945 55.5117 381.945 53.735V41.32C381.945 39.9333 381.771 38.915 381.425 38.265C381.121 37.615 380.601 37.29 379.865 37.29C379.215 37.29 378.131 37.615 376.615 38.265H376.55C376.376 38.265 376.246 38.1567 376.16 37.94C376.073 37.7233 376.095 37.5933 376.225 37.55L384.74 33.39C385 33.3033 385.151 33.26 385.195 33.26C385.628 33.26 386.061 33.7367 386.495 34.69C386.928 35.6 387.188 36.8133 387.275 38.33C388.965 36.4233 390.373 35.1017 391.5 34.365C392.626 33.6283 393.645 33.26 394.555 33.26Z" fill="white"/>
<path d="M58.44 22.8236C58.44 18.6883 55.009 15.3362 50.7765 15.3362H9.66352C5.43101 15.3362 2 18.6883 2 22.8236" stroke="url(#paint0_radial_13105_2)" stroke-width="3.5" stroke-miterlimit="10"/>
<path d="M4 60.6953C4 64.6965 7.25233 67.9407 11.2634 67.9407H50.2295C54.2406 67.9407 57.4929 64.6965 57.4929 60.6953" stroke="url(#paint1_radial_13105_2)" stroke-width="3.5" stroke-miterlimit="10"/>
<path d="M18.5782 26H15V56.7272H18.5782V26Z" fill="url(#paint2_radial_13105_2)"/>
<path d="M25.2317 26H21.6534V56.7272H25.2317V26Z" fill="url(#paint3_radial_13105_2)"/>
<path d="M32.0104 26H28.4321V56.7272H32.0104V26Z" fill="url(#paint4_radial_13105_2)"/>
<path d="M38.6003 26H35.0221V56.7272H38.6003V26Z" fill="url(#paint5_radial_13105_2)"/>
<path d="M45.3489 26H41.7706V56.7272H45.3489V26Z" fill="url(#paint6_radial_13105_2)"/>
<path d="M18.5782 72.5918H15V78H18.5782V72.5918Z" fill="url(#paint7_radial_13105_2)"/>
<path d="M25.2317 72.5918H21.6534V78H25.2317V72.5918Z" fill="url(#paint8_radial_13105_2)"/>
<path d="M32.0105 72.5918H28.4323V78H32.0105V72.5918Z" fill="url(#paint9_radial_13105_2)"/>
<path d="M38.602 72.5918H35.0238V78H38.602V72.5918Z" fill="url(#paint10_radial_13105_2)"/>
<path d="M45.349 72.5918H41.7708V78H45.349V72.5918Z" fill="url(#paint11_radial_13105_2)"/>
<path d="M25.23 0H21.6517V5.40822H25.23V0Z" fill="url(#paint12_radial_13105_2)"/>
<path d="M32.0104 0H28.4321V5.40822H32.0104V0Z" fill="url(#paint13_radial_13105_2)"/>
<path d="M38.6002 0H35.022V5.40822H38.6002V0Z" fill="url(#paint14_radial_13105_2)"/>
<path d="M48.4865 23.5694V20H13V23.5694H48.4865Z" fill="url(#paint15_radial_13105_2)"/>
<path d="M48 63.3699V59.8005H12.5136V63.3699H48Z" fill="url(#paint16_radial_13105_2)"/>
<path d="M48 10.8438V7.27441H12.5136V10.8438H48Z" fill="url(#paint17_radial_13105_2)"/>
<defs>
<radialGradient id="paint0_radial_13105_2" cx="0" cy="0" r="1" gradientUnits="userSpaceOnUse" gradientTransform="translate(30.22 19.0799) rotate(90) scale(3.7437 28.22)">
<stop stop-color="#DBBC80"/>
<stop offset="1" stop-color="#AB8219"/>
</radialGradient>
<radialGradient id="paint1_radial_13105_2" cx="0" cy="0" r="1" gradientUnits="userSpaceOnUse" gradientTransform="translate(30.7464 64.318) rotate(90) scale(3.62271 26.7464)">
<stop stop-color="#DBBC80"/>
<stop offset="1" stop-color="#AB8219"/>
</radialGradient>
<radialGradient id="paint2_radial_13105_2" cx="0" cy="0" r="1" gradientUnits="userSpaceOnUse" gradientTransform="translate(16.7891 41.3636) rotate(90) scale(15.3636 1.78911)">
<stop stop-color="#DBBC80"/>
<stop offset="1" stop-color="#AB8219"/>
</radialGradient>
<radialGradient id="paint3_radial_13105_2" cx="0" cy="0" r="1" gradientUnits="userSpaceOnUse" gradientTransform="translate(23.4426 41.3636) rotate(90) scale(15.3636 1.78911)">
<stop stop-color="#DBBC80"/>
<stop offset="1" stop-color="#AB8219"/>
</radialGradient>
<radialGradient id="paint4_radial_13105_2" cx="0" cy="0" r="1" gradientUnits="userSpaceOnUse" gradientTransform="translate(30.2212 41.3636) rotate(90) scale(15.3636 1.78911)">
<stop stop-color="#DBBC80"/>
<stop offset="1" stop-color="#AB8219"/>
</radialGradient>
<radialGradient id="paint5_radial_13105_2" cx="0" cy="0" r="1" gradientUnits="userSpaceOnUse" gradientTransform="translate(36.8112 41.3636) rotate(90) scale(15.3636 1.78911)">
<stop stop-color="#DBBC80"/>
<stop offset="1" stop-color="#AB8219"/>
</radialGradient>
<radialGradient id="paint6_radial_13105_2" cx="0" cy="0" r="1" gradientUnits="userSpaceOnUse" gradientTransform="translate(43.5597 41.3636) rotate(90) scale(15.3636 1.78911)">
<stop stop-color="#DBBC80"/>
<stop offset="1" stop-color="#AB8219"/>
</radialGradient>
<radialGradient id="paint7_radial_13105_2" cx="0" cy="0" r="1" gradientUnits="userSpaceOnUse" gradientTransform="translate(16.7891 75.2959) rotate(90) scale(2.70411 1.78911)">
<stop stop-color="#DBBC80"/>
<stop offset="1" stop-color="#AB8219"/>
</radialGradient>
<radialGradient id="paint8_radial_13105_2" cx="0" cy="0" r="1" gradientUnits="userSpaceOnUse" gradientTransform="translate(23.4426 75.2959) rotate(90) scale(2.70411 1.78911)">
<stop stop-color="#DBBC80"/>
<stop offset="1" stop-color="#AB8219"/>
</radialGradient>
<radialGradient id="paint9_radial_13105_2" cx="0" cy="0" r="1" gradientUnits="userSpaceOnUse" gradientTransform="translate(30.2214 75.2959) rotate(90) scale(2.70411 1.78911)">
<stop stop-color="#DBBC80"/>
<stop offset="1" stop-color="#AB8219"/>
</radialGradient>
<radialGradient id="paint10_radial_13105_2" cx="0" cy="0" r="1" gradientUnits="userSpaceOnUse" gradientTransform="translate(36.8129 75.2959) rotate(90) scale(2.70411 1.78911)">
<stop stop-color="#DBBC80"/>
<stop offset="1" stop-color="#AB8219"/>
</radialGradient>
<radialGradient id="paint11_radial_13105_2" cx="0" cy="0" r="1" gradientUnits="userSpaceOnUse" gradientTransform="translate(43.5599 75.2959) rotate(90) scale(2.70411 1.78911)">
<stop stop-color="#DBBC80"/>
<stop offset="1" stop-color="#AB8219"/>
</radialGradient>
<radialGradient id="paint12_radial_13105_2" cx="0" cy="0" r="1" gradientUnits="userSpaceOnUse" gradientTransform="translate(23.4408 2.70411) rotate(90) scale(2.70411 1.78911)">
<stop stop-color="#DBBC80"/>
<stop offset="1" stop-color="#AB8219"/>
</radialGradient>
<radialGradient id="paint13_radial_13105_2" cx="0" cy="0" r="1" gradientUnits="userSpaceOnUse" gradientTransform="translate(30.2212 2.70411) rotate(90) scale(2.70411 1.78911)">
<stop stop-color="#DBBC80"/>
<stop offset="1" stop-color="#AB8219"/>
</radialGradient>
<radialGradient id="paint14_radial_13105_2" cx="0" cy="0" r="1" gradientUnits="userSpaceOnUse" gradientTransform="translate(36.8111 2.70411) rotate(90) scale(2.70411 1.78911)">
<stop stop-color="#DBBC80"/>
<stop offset="1" stop-color="#AB8219"/>
</radialGradient>
<radialGradient id="paint15_radial_13105_2" cx="0" cy="0" r="1" gradientUnits="userSpaceOnUse" gradientTransform="translate(30.7432 21.7847) rotate(-180) scale(17.7432 1.78468)">
<stop stop-color="#DBBC80"/>
<stop offset="1" stop-color="#AB8219"/>
</radialGradient>
<radialGradient id="paint16_radial_13105_2" cx="0" cy="0" r="1" gradientUnits="userSpaceOnUse" gradientTransform="translate(30.2568 61.5852) rotate(180) scale(17.7432 1.78469)">
<stop stop-color="#DBBC80"/>
<stop offset="1" stop-color="#AB8219"/>
</radialGradient>
<radialGradient id="paint17_radial_13105_2" cx="0" cy="0" r="1" gradientUnits="userSpaceOnUse" gradientTransform="translate(30.2568 9.0591) rotate(-180) scale(17.7432 1.78468)">
<stop stop-color="#DBBC80"/>
<stop offset="1" stop-color="#AB8219"/>
</radialGradient>
</defs>
</svg>
