<svg width="18" height="16" viewBox="0 0 18 16" fill="none" xmlns="http://www.w3.org/2000/svg">
<g filter="url(#filter0_d_13105_4)">
<path d="M-21 8C-21 -8.56854 -7.56854 -22 9 -22C25.5685 -22 39 -8.56854 39 8C39 24.5685 25.5685 38 9 38C-7.56854 38 -21 24.5685 -21 8Z" stroke="#D1B06B" stroke-width="2"/>
<path d="M17.3571 0.800049H0.642857C0.472361 0.800049 0.308848 0.86901 0.188288 0.991761C0.0677294 1.11451 0 1.281 0 1.45459V14.5455C0 14.7191 0.0677294 14.8856 0.188288 15.0083C0.308848 15.1311 0.472361 15.2 0.642857 15.2H17.3571C17.5276 15.2 17.6912 15.1311 17.8117 15.0083C17.9323 14.8856 18 14.7191 18 14.5455V1.45459C18 1.281 17.9323 1.11451 17.8117 0.991761C17.6912 0.86901 17.5276 0.800049 17.3571 0.800049ZM9.39455 9.17128C9.28173 9.26058 9.1429 9.30906 9 9.30906C8.8571 9.30906 8.71827 9.26058 8.60545 9.17128L2.31228 4.18773L3.10138 3.15437L9 7.82537L14.8986 3.15437L15.6877 4.18773L9.39455 9.17128Z" fill="#CCAA60"/>
</g>
<defs>
<filter id="filter0_d_13105_4" x="-26" y="-23" width="70" height="70" filterUnits="userSpaceOnUse" color-interpolation-filters="sRGB">
<feFlood flood-opacity="0" result="BackgroundImageFix"/>
<feColorMatrix in="SourceAlpha" type="matrix" values="0 0 0 0 0 0 0 0 0 0 0 0 0 0 0 0 0 0 127 0" result="hardAlpha"/>
<feOffset dy="4"/>
<feGaussianBlur stdDeviation="2"/>
<feComposite in2="hardAlpha" operator="out"/>
<feColorMatrix type="matrix" values="0 0 0 0 0 0 0 0 0 0 0 0 0 0 0 0 0 0 0.25 0"/>
<feBlend mode="normal" in2="BackgroundImageFix" result="effect1_dropShadow_13105_4"/>
<feBlend mode="normal" in="SourceGraphic" in2="effect1_dropShadow_13105_4" result="shape"/>
</filter>
</defs>
</svg>
